<?xml version="1.0" standalone="no"?>
<!DOCTYPE svg PUBLIC "-//W3C//DTD SVG 20010904//EN"
 "http://www.w3.org/TR/2001/REC-SVG-20010904/DTD/svg10.dtd">
<svg version="1.0" xmlns="http://www.w3.org/2000/svg"
 width="700.000000pt" height="700.000000pt" viewBox="0 0 700.000000 700.000000"
 preserveAspectRatio="xMidYMid meet">

<g transform="translate(0.000000,700.000000) scale(0.100000,-0.100000)"
fill="#000000" stroke="none">
<path d="M1752 5247 c-958 -958 -1742 -1744 -1742 -1747 0 -7 3478 -3484 3488
-3487 4 -1 794 782 1755 1740 l1749 1742 -1746 1745 c-961 960 -1750 1746
-1754 1748 -4 1 -791 -782 -1750 -1741z m1890 516 l258 -258 -942 -942 -943
-943 273 -272 272 -273 943 942 942 942 794 -792 795 -792 -1205 -1197 -1204
-1198 -258 258 -257 257 941 941 942 942 -273 271 c-150 149 -274 270 -276
269 -2 -2 -425 -425 -941 -940 l-938 -937 -793 791 -794 791 1199 1199 c659
659 1200 1198 1203 1198 3 0 121 -116 262 -257z"/>
</g>
</svg>
